<?xml version="1.0" encoding="iso-8859-1"?>
<!-- Generator: Adobe Illustrator 19.0.0, SVG Export Plug-In . SVG Version: 6.00 Build 0)  -->
<svg version="1.1" id="Layer_1" xmlns="http://www.w3.org/2000/svg" xmlns:xlink="http://www.w3.org/1999/xlink" x="0px" y="0px"
	 viewBox="0 0 512 512" style="enable-background:new 0 0 512 512;" xml:space="preserve">
<circle style="fill:#477F3C;" cx="256" cy="256" r="256"/>
<path style="fill:#2E5E24;" d="M504.527,317.573L399.498,212.544l-17.861,24.324l-81.998-81.998l-85.042,58.792L94.989,286.058
	l219.279,219.276C407.754,483.573,481.559,410.59,504.527,317.573z"/>
<path style="fill:#FFEDB5;" d="M124.475,142.222h146.358c21.618,0,39.141,17.524,39.141,39.141v78.965
	c0,21.618-17.525,39.143-39.141,39.143h-73.18l-44.928,44.251v-44.251h-28.25c-21.618,0-39.141-17.525-39.141-39.143v-78.965
	C85.333,159.746,102.859,142.222,124.475,142.222z"/>
<path style="fill:#FEE187;" d="M270.834,142.222h-72.871v157.25h72.871c21.618,0,39.141-17.525,39.141-39.143v-78.965
	C309.975,159.747,292.452,142.222,270.834,142.222z"/>
<path style="fill:#FFC61B;" d="M369.998,199.111H223.641c-21.618,0-39.141,17.524-39.141,39.141v78.965
	c0,21.618,17.525,39.143,39.141,39.143h73.18l44.928,44.251v-44.251H370c21.618,0,39.141-17.525,39.141-39.143v-78.965
	C409.14,216.635,391.615,199.111,369.998,199.111z"/>
<path style="fill:#EAA22F;" d="M369.998,199.111h-77.796v157.25h4.617l44.928,44.251v-44.251h28.251
	c21.618,0,39.141-17.525,39.141-39.143v-78.965C409.14,216.636,391.615,199.111,369.998,199.111z"/>
<g>
</g>
<g>
</g>
<g>
</g>
<g>
</g>
<g>
</g>
<g>
</g>
<g>
</g>
<g>
</g>
<g>
</g>
<g>
</g>
<g>
</g>
<g>
</g>
<g>
</g>
<g>
</g>
<g>
</g>
</svg>
