<?xml version="1.0" encoding="iso-8859-1"?>
<!-- Generator: Adobe Illustrator 19.0.0, SVG Export Plug-In . SVG Version: 6.00 Build 0)  -->
<svg version="1.1" id="Capa_1" xmlns="http://www.w3.org/2000/svg" xmlns:xlink="http://www.w3.org/1999/xlink" x="0px" y="0px"
	 viewBox="0 0 512 512" style="enable-background:new 0 0 512 512;" xml:space="preserve">
<g>
	<path style="fill:#D4D4D4;" d="M405.563,246.989c-5.061,0-9.933-1.53-14.088-4.426l-52.018-36.263h-1.379l-0.077-2.011
		l0.075-59.059l68.386,47.719l72.617-44.264l25.642,42.069l-86.335,52.627C414.532,245.742,410.097,246.989,405.563,246.989z"/>
	<path style="fill:#D4D4D4;" d="M338.097,120.847l0.074-58.292l53.302-37.161c4.15-2.893,9.017-4.422,14.077-4.422
		c4.524,0,8.961,1.245,12.832,3.602l86.336,52.637l-25.642,42.06L406.46,75.007l-65.651,45.841L338.097,120.847L338.097,120.847z"/>
</g>
<polygon style="fill:#5A6B96;" points="281.496,206.357 281.541,169.497 281.561,169.497 281.63,96.381 281.672,61.533 
	342.178,61.598 342.186,63.606 342.116,118.842 342.086,149.079 342.015,206.434 "/>
<path style="fill:#FF4F4F;" d="M136.062,173.338l1.947-3.077c6.889-10.889,10.531-23.487,10.531-36.433
	c0-12.999-3.661-25.634-10.589-36.54l-1.963-3.088l149.656,0.177v3.291l-0.092,75.848L136.062,173.338z"/>
<path style="fill:#5A6B96;" d="M80.293,206.09c-4.329,0-8.667-0.385-12.894-1.146c-34.4-6.198-59.368-36.107-59.368-71.117
	c0-39.845,32.417-72.261,72.262-72.261c24.865,0,47.686,12.549,61.046,33.568c7.338,11.551,11.216,24.93,11.216,38.694
	c0,13.708-3.857,27.049-11.154,38.581c-0.798,1.27-1.605,2.463-2.394,3.544C125.455,194.818,103.502,206.09,80.293,206.09z
	 M80.293,107.434c-14.554,0-26.393,11.84-26.393,26.393c0,14.553,11.839,26.393,26.393,26.393s26.393-11.84,26.393-26.393
	S94.847,107.434,80.293,107.434z"/>
<path style="fill:#D4D4D4;" d="M80.293,164.235c-16.767,0-30.409-13.641-30.409-30.409s13.641-30.409,30.409-30.409
	s30.409,13.641,30.409,30.409S97.061,164.235,80.293,164.235z"/>
<path style="fill:#FF4F4F;" d="M124.481,342.171l-60.02-141.838l3.649,0.657c3.994,0.719,8.093,1.083,12.184,1.083
	c21.919,0,42.653-10.646,55.463-28.478l2.086-2.904l72.567,171.48h-85.928V342.171z"/>
<path style="fill:#D4D4D4;" d="M166.952,408.56c-10.153,0-18.412-8.263-18.412-18.422c0-10.152,8.259-18.412,18.412-18.412
	c10.158,0,18.422,8.26,18.422,18.412C185.374,400.296,177.109,408.56,166.952,408.56z"/>
<path style="fill:#5A6B96;" d="M79.277,438.507l39.017-100.352h97.316l39.017,100.352H79.277z M166.952,375.742
	c-7.938,0-14.396,6.458-14.396,14.396c0,7.943,6.458,14.406,14.396,14.406c7.944,0,14.406-6.463,14.406-14.406
	C181.358,382.2,174.895,375.742,166.952,375.742z"/>
<rect x="8.232" y="434.495" style="fill:#FF4F4F;" width="434.496" height="56.531"/>
<path d="M166.952,363.695c-14.581,0-26.443,11.862-26.443,26.443c0,14.586,11.862,26.453,26.443,26.453
	c14.586,0,26.453-11.866,26.453-26.453C193.405,375.558,181.538,363.695,166.952,363.695z M166.952,396.513
	c-3.51,0-6.365-2.86-6.365-6.375c0-3.51,2.855-6.365,6.365-6.365c3.515,0,6.375,2.855,6.375,6.365
	C173.327,393.653,170.467,396.513,166.952,396.513z"/>
<path d="M0,133.827c0,37.024,25.142,68.896,60.528,77.824l51.586,121.908c-0.754,0.862-1.373,1.857-1.804,2.967L75.343,426.46H10.24
	c-5.545,0-10.039,4.496-10.039,10.039v52.516c0,5.544,4.495,10.039,10.039,10.039h430.481c5.545,0,10.039-4.496,10.039-10.039
	v-52.516c0-5.544-4.495-10.039-10.039-10.039H258.56l-34.968-89.935c-1.501-3.859-5.216-6.401-9.357-6.401h-0.204l-62.944-148.738
	l122.407,0.146l-0.028,22.808c-0.007,5.545,4.483,10.045,10.026,10.052l53.622,0.067l49.768,34.694
	c5.51,3.838,11.969,5.868,18.679,5.868c6.014,0,11.899-1.655,17.001-4.78l84.62-51.582c4.733-2.886,6.232-9.063,3.347-13.798
	l-23.552-38.64c-1.385-2.274-3.618-3.903-6.206-4.531c-2.588-0.63-5.319-0.201-7.592,1.184l-66.426,40.49l-56.637-39.521
	l0.024-19.718l56.615-39.532l66.424,40.489c4.732,2.882,10.91,1.386,13.797-3.346l23.552-38.631
	c2.886-4.733,1.388-10.911-3.346-13.797l-84.626-51.595c-11.062-6.732-25.066-6.305-35.678,1.093l-49.852,34.756l-53.341-0.057
	c-0.004,0-0.007,0-0.011,0c-5.539,0-10.032,4.487-10.039,10.026l-0.028,22.8l-128.683-0.153
	c-15.129-20.539-38.892-32.644-64.632-32.644C36.02,53.534,0,89.554,0,133.827z M430.682,478.975H20.279v-32.438h61.932h169.482
	h178.989V478.975z M237.018,426.46H96.885l29.65-76.258h80.808c0.008,0,0.017,0.002,0.025,0.002L237.018,426.46z M132.464,330.124
	L83.348,214.055c19-0.729,37.062-8.226,50.95-20.825l57.931,136.893h-59.765V330.124z M400.641,203.581
	c3.267,2.28,7.571,2.41,10.97,0.339l63.45-38.675l13.102,21.495l-76.065,46.368c-1.962,1.201-4.221,1.835-6.535,1.835
	c-2.586,0-5.077-0.782-7.199-2.262l-48.311-33.678l0.037-30.697L400.641,203.581z M398.364,35.276
	c4.086-2.847,9.486-3.011,13.749-0.417l76.049,46.366l-13.1,21.487l-63.451-38.676c-3.4-2.071-7.705-1.94-10.973,0.341
	l-50.465,35.238l0.037-30.767L398.364,35.276z M330.126,73.632l-0.09,75.404c0,0.013-0.002,0.027-0.002,0.04
	c0,0.01,0.002,0.02,0.002,0.031l-0.054,45.264l-36.423-0.045l0.027-22.404c0.006-0.136,0.021-0.269,0.021-0.407l0.07-73.838
	c0-0.008-0.001-0.016-0.001-0.023l0.029-24.06L330.126,73.632z M273.52,161.453l-117.772-0.14
	c2.046-5.617,3.448-11.458,4.198-17.417h35.743c5.545,0,10.039-4.496,10.039-10.039s-4.495-10.039-10.039-10.039h-35.734
	c-0.749-6.007-2.162-11.892-4.227-17.55l117.859,0.14L273.52,161.453z M80.293,73.612c20.654,0,39.615,10.395,50.767,27.813
	c0.093,0.153,0.184,0.306,0.285,0.454c5.911,9.421,9.069,20.287,9.155,31.481c-0.008,0.166-0.025,0.329-0.025,0.497
	c0,0.163,0.017,0.321,0.024,0.482c-0.094,11.244-3.294,22.17-9.291,31.649c-0.655,1.039-1.303,2.001-1.976,2.922
	c-11.305,15.737-29.6,25.132-48.94,25.132c-3.615,0-7.235-0.321-10.759-0.956c-28.656-5.162-49.455-30.084-49.455-59.259
	C20.078,100.624,47.091,73.612,80.293,73.612z"/>
<path d="M80.293,172.267c21.196,0,38.44-17.244,38.44-38.44s-17.244-38.44-38.44-38.44s-38.44,17.244-38.44,38.44
	S59.098,172.267,80.293,172.267z M80.293,115.465c10.125,0,18.362,8.237,18.362,18.362s-8.237,18.362-18.362,18.362
	s-18.362-8.237-18.362-18.362S70.169,115.465,80.293,115.465z"/>
<path d="M227.645,143.897c12.919,0,12.941-20.078,0-20.078C214.725,123.819,214.704,143.897,227.645,143.897z"/>
<g>
</g>
<g>
</g>
<g>
</g>
<g>
</g>
<g>
</g>
<g>
</g>
<g>
</g>
<g>
</g>
<g>
</g>
<g>
</g>
<g>
</g>
<g>
</g>
<g>
</g>
<g>
</g>
<g>
</g>
</svg>
